<svg width="50" height="50" viewBox="0 0 50 50" fill="none" xmlns="http://www.w3.org/2000/svg">
<rect x="1" y="1" width="48" height="48" stroke="#EBEBEB" stroke-width="2" stroke-dasharray="4 4"/>
<path d="M9.4149 28.0901C8.91239 27.861 8.31927 28.0826 8.09013 28.5851L4.35606 36.7739C4.12692 37.2764 4.34853 37.8695 4.85103 38.0987C5.35354 38.3278 5.94666 38.1062 6.1758 37.6037L9.49497 30.3248L16.7739 33.6439C17.2764 33.8731 17.8695 33.6515 18.0987 33.149C18.3278 32.6465 18.1062 32.0533 17.6037 31.8242L9.4149 28.0901ZM8.06325 29.35C10.1399 34.9079 13.2248 38.3992 16.7659 40.2769C20.2995 42.1506 24.1756 42.3583 27.7333 41.5583C31.2834 40.76 34.5632 38.9501 36.9677 36.7127C39.3487 34.4971 41 31.7345 41 29L39 29C39 30.9537 37.7809 33.2241 35.6052 35.2486C33.453 37.2513 30.4897 38.8886 27.2945 39.6071C24.1068 40.3238 20.7352 40.1179 17.7029 38.5099C14.678 36.9059 11.8787 33.8474 9.93675 28.65L8.06325 29.35Z" fill="#EBEBEB"/>
<path d="M39.5851 21.9099C40.0876 22.139 40.6807 21.9174 40.9099 21.4149L44.6439 13.2261C44.8731 12.7236 44.6515 12.1305 44.149 11.9013C43.6465 11.6722 43.0533 11.8938 42.8242 12.3963L39.505 19.6752L32.2261 16.3561C31.7236 16.1269 31.1305 16.3485 30.9013 16.851C30.6722 17.3535 30.8938 17.9467 31.3963 18.1758L39.5851 21.9099ZM40.9368 20.65C38.8601 15.0921 35.7752 11.6008 32.2341 9.72314C28.7005 7.84938 24.8244 7.6417 21.2667 8.44167C17.7166 9.23997 14.4368 11.0499 12.0323 13.2873C9.65127 15.5029 8 18.2655 8 21L10 21C10 19.0463 11.2191 16.7759 13.3948 14.7514C15.547 12.7487 18.5103 11.1114 21.7055 10.393C24.8932 9.67616 28.2648 9.88215 31.2972 11.4901C34.322 13.0941 37.1213 16.1526 39.0632 21.35L40.9368 20.65Z" fill="#EBEBEB"/>
</svg>
