<svg width="50" height="50" viewBox="0 0 50 50" fill="none" xmlns="http://www.w3.org/2000/svg">
<path d="M15.2929 26.7071C15.6834 27.0976 16.3166 27.0976 16.7071 26.7071L23.0711 20.3431C23.4616 19.9526 23.4616 19.3195 23.0711 18.9289C22.6805 18.5384 22.0474 18.5384 21.6569 18.9289L16 24.5858L10.3431 18.9289C9.95262 18.5384 9.31946 18.5384 8.92893 18.9289C8.53841 19.3195 8.53841 19.9526 8.92893 20.3431L15.2929 26.7071ZM15 0L15 26H17L17 0H15Z" fill="#EBEBEB"/>
<path d="M34.7071 22.2929C34.3166 21.9024 33.6834 21.9024 33.2929 22.2929L26.9289 28.6569C26.5384 29.0474 26.5384 29.6805 26.9289 30.0711C27.3195 30.4616 27.9526 30.4616 28.3431 30.0711L34 24.4142L39.6569 30.0711C40.0474 30.4616 40.6805 30.4616 41.0711 30.0711C41.4616 29.6805 41.4616 29.0474 41.0711 28.6569L34.7071 22.2929ZM35 49L35 23L33 23L33 49L35 49Z" fill="#EBEBEB"/>
<rect x="1" y="1" width="48" height="48" stroke="#EBEBEB" stroke-width="2" stroke-dasharray="4 4"/>
</svg>
